# File created by Blade
# Date/Time:  Mon Sep 22 17:46:01 2014
# Frame Rate: 120.000 fps
#------------------------------------------------------
:FULLY-SPECIFIED
:DEGREES
2125
root 6.227210 36.596265 6.020430 -11.890781 -30.452513 -2.702195
RightUpLeg -8.119269 -46.227215 -28.956552
RightLeg 61.083834 -0.000000 -0.000000
RightFoot -2.966271 -34.515059 17.660296
RightToeBase -4.290669 -0.000000 0.000000
LeftUpLeg 23.026957 13.136894 -5.925702
LeftLeg -6.312958 -0.000000 0.000000
LeftFoot -13.485092 23.935414 -9.988477
LeftToeBase 3.026152 -0.000000 -0.000000
Spine 18.813275 -2.680565 -9.256670
RightShoulder 0.874098 -30.513078 -4.928699
RightArm 17.532141 -15.608145 67.299601
RightForeArm 6.612783 -0.000000 51.167733
RightHand -2.740439 -0.000000 -19.844961
RightHandThumb1 -24.326973 -0.000000 -32.862282
LeftShoulder -18.075738 34.078871 0.732452
LeftArm 50.522602 -20.394706 -72.215775
LeftForeArm 26.293050 -0.000000 110.914007
LeftHand -30.348111 -0.000000 13.861868
LeftHandThumb1 -26.253704 0.000000 33.147579
Head 23.504435 6.349189 14.091521
2126
root 6.224306 36.603666 6.010852 -11.849632 -30.489274 -2.826757
RightUpLeg -7.978146 -46.174039 -29.132984
RightLeg 61.183815 -0.000000 -0.000000
RightFoot -2.933844 -34.458515 17.635857
RightToeBase -4.460235 -0.000000 0.000000
LeftUpLeg 23.057762 13.171582 -5.791451
LeftLeg -6.346490 -0.000000 0.000000
LeftFoot -13.454295 23.925504 -9.963270
LeftToeBase 2.953157 -0.000000 -0.000000
Spine 18.904814 -2.752195 -9.170048
RightShoulder 0.922161 -30.509992 -4.958896
RightArm 17.458470 -15.514943 67.336210
RightForeArm 6.570962 -0.000000 51.177640
RightHand -2.690376 -0.000000 -20.086705
RightHandThumb1 -24.326973 -0.000000 -32.862282
LeftShoulder -18.003588 34.040005 0.787411
LeftArm 50.566407 -20.370833 -72.155125
LeftForeArm 26.153460 -0.000000 110.760598
LeftHand -30.170180 0.000000 13.817962
LeftHandThumb1 -26.253704 0.000000 33.147579
Head 23.473747 6.751812 14.195791
2127
root 6.220227 36.610705 6.000872 -11.806492 -30.523512 -2.937949
RightUpLeg -7.844049 -46.099207 -29.301855
RightLeg 61.286769 -0.000000 -0.000000
RightFoot -3.133436 -34.393954 17.895644
RightToeBase -4.374960 -0.000000 0.000000
LeftUpLeg 23.077550 13.225302 -5.662892
LeftLeg -6.371341 -0.000000 0.000000
LeftFoot -13.421249 23.892204 -9.923651
LeftToeBase 2.969677 -0.000000 -0.000000
Spine 18.977288 -2.798249 -9.099284
RightShoulder 0.928244 -30.509314 -4.952838
RightArm 17.402589 -15.454184 67.353471
RightForeArm 6.638654 -0.000000 51.159093
RightHand -2.665203 -0.000000 -20.152700
RightHandThumb1 -24.326973 -0.000000 -32.862282
LeftShoulder -17.899415 34.021108 0.893223
LeftArm 50.642887 -20.310154 -72.141030
LeftForeArm 26.043895 -0.000000 110.629375
LeftHand -30.321229 0.000000 13.769011
LeftHandThumb1 -26.253704 0.000000 33.147579
Head 23.444255 7.163993 14.292161
2128
root 6.217651 36.616243 5.992135 -11.769900 -30.542598 -3.035693
RightUpLeg -7.700866 -46.029863 -29.480205
RightLeg 61.366044 -0.000000 -0.000000
RightFoot -2.970985 -34.368201 17.557594
RightToeBase -4.362698 -0.000000 0.000000
LeftUpLeg 23.100780 13.256149 -5.556606
LeftLeg -6.406816 -0.000000 0.000000
LeftFoot -13.381042 23.883157 -9.885875
LeftToeBase 2.928767 -0.000000 -0.000000
Spine 19.054615 -2.838193 -9.029932
RightShoulder 0.914092 -30.512308 -4.960946
RightArm 17.366543 -15.448472 67.371131
RightForeArm 6.647059 0.000000 51.094317
RightHand -2.642808 -0.000000 -20.456839
RightHandThumb1 -24.326973 -0.000000 -32.862282
LeftShoulder -17.778808 34.006384 1.018222
LeftArm 50.699597 -20.245356 -72.114233
LeftForeArm 25.997400 0.000000 110.477758
LeftHand -30.419617 0.000000 13.688253
LeftHandThumb1 -26.253704 0.000000 33.147579
Head 23.387131 7.532231 14.323429
2129
root 6.218053 36.622367 5.978308 -11.678903 -30.517651 -3.143630
RightUpLeg -7.609071 -46.002469 -29.605000
RightLeg 61.440649 -0.000000 -0.000000
RightFoot -3.083793 -34.284863 17.656070
RightToeBase -4.231903 -0.000000 0.000000
LeftUpLeg 23.054491 13.224000 -5.467007
LeftLeg -6.421474 -0.000000 0.000000
LeftFoot -13.360225 23.875897 -9.857875
LeftToeBase 2.905018 -0.000000 -0.000000
Spine 19.075016 -2.951503 -8.970313
RightShoulder 0.937500 -30.566821 -4.975861
RightArm 17.361365 -15.405639 67.383681
RightForeArm 6.639064 -0.000000 51.011148
RightHand -2.555641 -0.000000 -20.693919
RightHandThumb1 -24.326973 -0.000000 -32.862282
LeftShoulder -17.697657 34.017858 1.136388
LeftArm 50.721875 -20.179222 -72.057164
LeftForeArm 25.876409 -0.000000 110.329682
LeftHand -30.308569 0.000000 13.616950
LeftHandThumb1 -26.253704 0.000000 33.147579
Head 23.406799 7.954146 14.422587
2130
root 6.217449 36.629558 5.966282 -11.591641 -30.517995 -3.224865
RightUpLeg -7.542167 -45.947015 -29.710369
RightLeg 61.495804 -0.000000 -0.000000
RightFoot -2.936809 -34.255439 17.537012
RightToeBase -4.506344 -0.000000 0.000000
LeftUpLeg 23.001820 13.232867 -5.390247
LeftLeg -6.438343 -0.000000 0.000000
LeftFoot -13.331217 23.853395 -9.851724
LeftToeBase 2.917211 -0.000000 -0.000000
Spine 19.063659 -3.044890 -8.940083
RightShoulder 0.973447 -30.602693 -4.980086
RightArm 17.329043 -15.408135 67.388002
RightForeArm 6.706070 0.000000 50.908024
RightHand -2.650349 -0.000000 -20.742526
RightHandThumb1 -24.326973 -0.000000 -32.862282
LeftShoulder -17.634390 34.012505 1.261517
LeftArm 50.720028 -20.075970 -71.971900
LeftForeArm 25.673330 -0.000000 110.144633
LeftHand -30.027510 -0.000000 14.003033
LeftHandThumb1 -26.253704 0.000000 33.147579
Head 23.458418 8.473912 14.549232
